<svg width="121" height="16" viewBox="0 0 121 16" fill="none" xmlns="http://www.w3.org/2000/svg">
<path d="M0 14.9418H8.84659V12.0781H3.55398V1.85086H0V14.9418Z" fill="#2F2F2F"/>
<path d="M16.7008 10.6463C16.7072 11.6179 16.1447 12.206 15.269 12.206C14.3805 12.206 13.8691 11.6179 13.8627 10.6463V5.12359H10.3343V11.3878C10.3407 13.5355 11.6958 15.0696 13.7605 15.0696C15.2243 15.0696 16.3493 14.3281 16.7775 13.0753H16.8798V14.9418H20.2292V5.12359H16.7008V10.6463Z" fill="#2F2F2F"/>
<path d="M26.7539 15.1208C29.6623 15.1208 31.4457 13.4524 31.484 10.8509H28.2113C28.1346 11.88 27.5785 12.4361 26.805 12.4361C25.8782 12.4361 25.271 11.6435 25.271 10.0327C25.271 8.42189 25.8782 7.62927 26.805 7.62927C27.5849 7.62927 28.1154 8.18538 28.2113 9.2145H31.484C31.4648 6.65768 29.6431 4.99575 26.7539 4.99575C23.5579 4.99575 21.6658 7.0412 21.6658 10.0582C21.6658 13.0753 23.5579 15.1208 26.7539 15.1208Z" fill="#2F2F2F"/>
<path d="M35.6756 15.0952C36.954 15.0952 37.9192 14.6605 38.5137 13.5611H38.5904V14.9418H41.8887V8.21734C41.8887 6.402 40.1692 4.99575 37.3631 4.99575C34.4292 4.99575 32.9846 6.52984 32.8631 8.31961H36.1103C36.1934 7.71237 36.6408 7.42473 37.312 7.42473C37.9256 7.42473 38.3603 7.70598 38.3603 8.21734V8.24291C38.3603 8.8118 37.7338 8.99078 36.0847 9.11223C34.0584 9.25924 32.4796 10.0774 32.4796 12.2315C32.4796 14.1875 33.7963 15.0952 35.6756 15.0952ZM36.8262 12.8707C36.2253 12.8707 35.8034 12.5767 35.8034 12.027C35.8034 11.522 36.1614 11.1321 36.9796 11.0043C37.5421 10.9148 38.0151 10.7997 38.3858 10.6463V11.4645C38.3858 12.3594 37.6252 12.8707 36.8262 12.8707Z" fill="#2F2F2F"/>
<path d="M52.549 8.31961C52.4595 6.2422 50.7337 4.99575 47.8956 4.99575C45.0895 4.99575 43.3572 6.14632 43.37 8.19177C43.3572 9.73865 44.3608 10.7294 46.3615 11.081L48.1001 11.3878C48.8672 11.5284 49.2124 11.733 49.2251 12.1037C49.2124 12.5128 48.7457 12.7429 48.1001 12.7429C47.3011 12.7429 46.7386 12.3977 46.6428 11.7713H43.1399C43.3317 13.7848 45.0703 15.1208 48.0746 15.1208C50.7912 15.1208 52.7919 13.7976 52.8047 11.6946C52.7919 10.2436 51.8203 9.39987 49.8132 9.03552L47.8189 8.67757C47.071 8.54333 46.8601 8.27487 46.8729 7.98723C46.8601 7.57814 47.3651 7.34802 47.9723 7.34802C48.669 7.34802 49.2507 7.71876 49.3018 8.31961H52.549Z" fill="#2F2F2F"/>
<path d="M57.6914 14.9418H61.2454V10.6207H62.4727L64.7738 14.9418H68.6346L65.9755 10.0582C67.369 9.38708 68.1999 8.11507 68.1999 6.29973C68.1999 3.51279 66.2504 1.85086 63.342 1.85086H57.6914V14.9418ZM61.2454 7.85939V4.68893H62.4982C63.7447 4.68893 64.4925 5.17473 64.4925 6.29973C64.4925 7.41833 63.7447 7.85939 62.4982 7.85939H61.2454Z" fill="#2F2F2F"/>
<path d="M69.766 14.9418H73.2944V5.12359H69.766V14.9418ZM71.5302 4.10086C72.489 4.10086 73.2688 3.37856 73.2688 2.49007C73.2688 1.60157 72.489 0.879272 71.5302 0.879272C70.5714 0.879272 69.7915 1.60157 69.7915 2.49007C69.7915 3.37856 70.5714 4.10086 71.5302 4.10086Z" fill="#2F2F2F"/>
<path d="M75.041 14.9418H78.5439V13.331H78.6206C79.0297 14.3281 79.9757 15.0696 81.3564 15.0696C83.4529 15.0696 85.2172 13.4332 85.2172 10.0327C85.2172 6.4787 83.3251 4.99575 81.3819 4.99575C79.9245 4.99575 79.0041 5.8395 78.6206 6.83666H78.5694V1.85086H75.041V14.9418ZM78.4927 10.0327C78.4927 8.5753 79.0808 7.70598 80.0524 7.70598C81.024 7.70598 81.5865 8.5753 81.5865 10.0327C81.5865 11.4901 81.024 12.3594 80.0524 12.3594C79.0808 12.3594 78.4927 11.4645 78.4927 10.0327Z" fill="#2F2F2F"/>
<path d="M91.3983 15.1208C94.1213 15.1208 95.8727 13.8168 96.2051 11.7713H92.9835C92.7789 12.3274 92.1973 12.6406 91.475 12.6406C90.4267 12.6406 89.813 11.9503 89.813 11.0043V10.8509H96.2051V10.0327C96.2051 6.90697 94.2875 4.99575 91.3216 4.99575C88.2789 4.99575 86.3358 7.01564 86.3358 10.0582C86.3358 13.2351 88.2534 15.1208 91.3983 15.1208ZM89.813 8.90768C89.8322 8.05754 90.5353 7.47586 91.3983 7.47586C92.274 7.47586 92.9387 8.06393 92.9579 8.90768H89.813Z" fill="#2F2F2F"/>
<path d="M97.6449 14.9418H101.173V5.12359H97.6449V14.9418ZM99.4091 4.10086C100.368 4.10086 101.148 3.37856 101.148 2.49007C101.148 1.60157 100.368 0.879272 99.4091 0.879272C98.4503 0.879272 97.6705 1.60157 97.6705 2.49007C97.6705 3.37856 98.4503 4.10086 99.4091 4.10086Z" fill="#2F2F2F"/>
<path d="M102.971 14.9418H106.499V9.82814C106.499 8.70314 107.273 7.96166 108.315 7.96166C108.679 7.96166 109.267 8.01919 109.619 8.14064V5.12998C109.338 5.04689 109.031 4.99575 108.724 4.99575C107.676 4.99575 106.857 5.60939 106.499 6.99007H106.397V5.12359H102.971V14.9418Z" fill="#2F2F2F"/>
<path d="M114.943 15.1208C118.139 15.1208 120.031 13.0753 120.031 10.0582C120.031 7.0412 118.139 4.99575 114.943 4.99575C111.747 4.99575 109.855 7.0412 109.855 10.0582C109.855 13.0753 111.747 15.1208 114.943 15.1208ZM114.969 12.5128C114.023 12.5128 113.46 11.5732 113.46 10.0327C113.46 8.4922 114.023 7.55257 114.969 7.55257C115.864 7.55257 116.426 8.4922 116.426 10.0327C116.426 11.5732 115.864 12.5128 114.969 12.5128Z" fill="#2F2F2F"/>
</svg>
